# xmcd CD database file
#
# Track frame offsets:
#	150
#	16169
#	29470
#	50269
#	63029
#	85657
#	105280
#	117994
#	134748
#	152408
#
# Disc length: 2261 seconds
#
# Revision: 0
# Processed by: cddbd v1.5.1PL0 Copyright (c) Steve Scherf et al.
# Submitted via: CDex 1.51
#
DISCID=6f08d30a
DTITLE=Jerry Jones - Country Gospel From the Heart
DYEAR=2004
DGENRE=Country
TTITLE0=Cathedral on the Hillside
TTITLE1=Tomorrow Isn't Promised
TTITLE2=Calvary
TTITLE3=Valley of the Lord
TTITLE4=As You're Looking Down at Me
TTITLE5=Thank You God
TTITLE6=God Doesn't Care
TTITLE7=It's True
TTITLE8=His Name is Jesus
TTITLE9=Amazing Grace
EXTD=YEAR: 2004
EXTT0=
EXTT1=
EXTT2=
EXTT3=
EXTT4=
EXTT5=
EXTT6=
EXTT7=
EXTT8=
EXTT9=
PLAYORDER=
